G75*
G70*
%OFA0B0*%
%FSLAX24Y24*%
%IPPOS*%
%LPD*%
%AMOC8*
5,1,8,0,0,1.08239X$1,22.5*
%
%ADD10C,0.0020*%
%ADD11R,0.0500X0.0220*%
%ADD12R,0.0433X0.0394*%
%ADD13R,0.0400X0.0450*%
%ADD14R,0.0630X0.0460*%
%ADD15R,0.0160X0.0160*%
%ADD16C,0.0079*%
%ADD17R,0.0276X0.0354*%
%ADD18R,0.0860X0.0220*%
%ADD19R,0.0950X0.1800*%
%ADD20R,0.0394X0.0433*%
%ADD21R,0.0394X0.0567*%
%ADD22R,0.0472X0.0567*%
%ADD23R,0.0472X0.0787*%
%ADD24R,0.0450X0.0400*%
%ADD25C,0.0620*%
D10*
X006654Y000650D02*
X006654Y008311D01*
X006656Y008355D01*
X006662Y008398D01*
X006671Y008440D01*
X006684Y008482D01*
X006701Y008522D01*
X006721Y008561D01*
X006744Y008598D01*
X006771Y008632D01*
X006800Y008665D01*
X006833Y008694D01*
X006867Y008721D01*
X006904Y008744D01*
X006943Y008764D01*
X006983Y008781D01*
X007025Y008794D01*
X007067Y008803D01*
X007110Y008809D01*
X007154Y008811D01*
X019402Y008811D01*
X019446Y008809D01*
X019489Y008803D01*
X019531Y008794D01*
X019573Y008781D01*
X019613Y008764D01*
X019652Y008744D01*
X019689Y008721D01*
X019723Y008694D01*
X019756Y008665D01*
X019785Y008632D01*
X019812Y008598D01*
X019835Y008561D01*
X019855Y008522D01*
X019872Y008482D01*
X019885Y008440D01*
X019894Y008398D01*
X019900Y008355D01*
X019902Y008311D01*
X019902Y000650D01*
X019900Y000606D01*
X019894Y000563D01*
X019885Y000521D01*
X019872Y000479D01*
X019855Y000439D01*
X019835Y000400D01*
X019812Y000363D01*
X019785Y000329D01*
X019756Y000296D01*
X019723Y000267D01*
X019689Y000240D01*
X019652Y000217D01*
X019613Y000197D01*
X019573Y000180D01*
X019531Y000167D01*
X019489Y000158D01*
X019446Y000152D01*
X019402Y000150D01*
X007154Y000150D01*
X007110Y000152D01*
X007067Y000158D01*
X007025Y000167D01*
X006983Y000180D01*
X006943Y000197D01*
X006904Y000217D01*
X006867Y000240D01*
X006833Y000267D01*
X006800Y000296D01*
X006771Y000329D01*
X006744Y000363D01*
X006721Y000400D01*
X006701Y000439D01*
X006684Y000479D01*
X006671Y000521D01*
X006662Y000563D01*
X006656Y000606D01*
X006654Y000650D01*
D11*
X015168Y002140D03*
X016188Y002140D03*
X016188Y002510D03*
X016188Y002880D03*
X015168Y002880D03*
D12*
X014558Y002815D03*
X014558Y002365D03*
X014558Y001695D03*
X014558Y003485D03*
X013253Y003875D03*
X013253Y004545D03*
X011328Y004589D03*
X011328Y005258D03*
X012683Y007065D03*
X012683Y007735D03*
X007391Y005258D03*
X007391Y004589D03*
X008964Y002778D03*
X008964Y002109D03*
D13*
X009773Y002250D03*
X010373Y002250D03*
X010973Y002250D03*
X011573Y002250D03*
X011573Y001550D03*
X010973Y001550D03*
X010373Y001550D03*
X009773Y001550D03*
X013958Y002100D03*
X013958Y002800D03*
X016955Y002144D03*
X017552Y002140D03*
X017552Y001440D03*
X016955Y001444D03*
X016651Y004461D03*
X016651Y005161D03*
X019320Y005162D03*
X019320Y004462D03*
X014080Y005953D03*
X013253Y006000D03*
X014080Y006653D03*
X013253Y005300D03*
X013991Y005158D03*
X013991Y004458D03*
X009693Y006700D03*
X009013Y006680D03*
X009013Y007380D03*
X009693Y007400D03*
D14*
X018373Y003165D03*
X018373Y002565D03*
X018373Y001965D03*
X013889Y001304D03*
X013889Y000704D03*
X008041Y002211D03*
X008041Y002811D03*
D15*
X008041Y002511D03*
X013889Y001004D03*
D16*
X015039Y000703D02*
X015039Y000467D01*
X015039Y000703D02*
X015275Y000703D01*
X015275Y000467D01*
X015039Y000467D01*
X015039Y000545D02*
X015275Y000545D01*
X015275Y000623D02*
X015039Y000623D01*
X015039Y000701D02*
X015275Y000701D01*
X015669Y000703D02*
X015669Y000467D01*
X015669Y000703D02*
X015905Y000703D01*
X015905Y000467D01*
X015669Y000467D01*
X015669Y000545D02*
X015905Y000545D01*
X015905Y000623D02*
X015669Y000623D01*
X015669Y000701D02*
X015905Y000701D01*
X016520Y006102D02*
X016756Y006102D01*
X016520Y006102D02*
X016520Y006398D01*
X016756Y006398D01*
X016756Y006102D01*
X016756Y006180D02*
X016520Y006180D01*
X016520Y006258D02*
X016756Y006258D01*
X016756Y006336D02*
X016520Y006336D01*
X017150Y006102D02*
X017386Y006102D01*
X017150Y006102D02*
X017150Y006398D01*
X017386Y006398D01*
X017386Y006102D01*
X017386Y006180D02*
X017150Y006180D01*
X017150Y006258D02*
X017386Y006258D01*
X017386Y006336D02*
X017150Y006336D01*
D17*
X015728Y001065D03*
X015216Y001065D03*
D18*
X010290Y003780D03*
X010290Y004280D03*
X010290Y004780D03*
X010290Y005280D03*
X008430Y005280D03*
X008430Y004780D03*
X008430Y004280D03*
X008430Y003780D03*
D19*
X015628Y007711D03*
X017353Y007711D03*
X019078Y007711D03*
D20*
X012688Y008250D03*
X012019Y008250D03*
X012019Y006550D03*
X012688Y006550D03*
X009694Y005992D03*
X009025Y005992D03*
X012019Y004550D03*
X012688Y004550D03*
D21*
X014070Y007371D03*
X014070Y008237D03*
X013322Y008237D03*
D22*
X013401Y007371D03*
D23*
X014692Y005161D03*
X015952Y005161D03*
X017373Y005162D03*
X018633Y005162D03*
D24*
X018340Y004390D03*
X017640Y004390D03*
X015672Y004383D03*
X014972Y004383D03*
X011129Y003052D03*
X010429Y003052D03*
X017903Y006250D03*
X018603Y006250D03*
D25*
X019313Y002950D03*
X019313Y001950D03*
X009853Y008190D03*
X008853Y008190D03*
M02*
