%
M48
M72
T01C0.0160
T02C0.0394
%
T01
X18843Y3923
X14484Y8237
X15684Y2517
X11614Y8247
X19313Y4028
X16643Y4038
X13993Y4028
X14928Y7704
X19077Y6584
X16243Y6244
X15803Y5934
X18393Y7706
X16188Y4248
X17138Y4218
X14460Y4272
X16323Y7700
X16950Y965
X17550Y955
X9780Y1082
X10380Y1082
X10980Y1082
X11580Y1082
X11344Y7517
X13264Y3457
X12824Y3877
X12004Y1547
X11594Y6547
X13744Y8257
X15623Y6600
X16603Y8460
X18083Y8480
X18103Y6880
X16643Y6720
X16550Y1445
X17970Y1445
X10624Y8237
X7624Y1237
X8454Y747
X13264Y2457
X13264Y1457
X14804Y1067
X15644Y1617
X15264Y3457
X16264Y3457
X17264Y3457
X16454Y747
X18454Y747
X19454Y747
X19414Y5997
X14803Y5934
X14803Y6934
X11843Y5184
X9144Y4787
X7794Y4927
X7174Y2107
X7174Y3107
X7174Y6107
X7174Y7107
X7174Y8107
X8174Y7107
X8174Y6107
X11824Y3877
X9354Y5537
X13594Y6417
X13394Y6867
X12294Y7407
X12743Y5184
X12043Y5984
X12343Y5584
X7024Y537
X18003Y5180
X15333Y5164
X11584Y3047
X12204Y747
X9204Y747
X12764Y2957
X10424Y7107
X10424Y6107
X11174Y6107
X9453Y2580
X9333Y1570
X9693Y4270
X10043Y3060
X7873Y4290
X8053Y3230
T02
X9853Y8190
X8853Y8190
X19313Y1950
X19313Y2950
M30
