G75*
G70*
%OFA0B0*%
%FSLAX24Y24*%
%IPPOS*%
%LPD*%
%AMOC8*
5,1,8,0,0,1.08239X$1,22.5*
%
%ADD10C,0.0230*%
%ADD11C,0.0020*%
%ADD12R,0.0950X0.1800*%
%ADD13C,0.0620*%
%ADD14C,0.0100*%
%ADD15C,0.0300*%
%ADD16C,0.0220*%
%ADD17C,0.0240*%
%ADD18C,0.0320*%
D10*
X022785Y005265D02*
X022785Y006536D01*
X023209Y006112D01*
X023632Y006536D01*
X023632Y005265D01*
X024166Y005477D02*
X024166Y006324D01*
X024378Y006536D01*
X024802Y006536D01*
X025014Y006324D01*
X025014Y005477D01*
X024802Y005265D01*
X024378Y005265D01*
X024166Y005477D01*
X025547Y006536D02*
X026395Y006536D01*
X025971Y006536D02*
X025971Y005265D01*
X027352Y005265D02*
X027352Y006536D01*
X026929Y006536D02*
X027776Y006536D01*
X028310Y006324D02*
X028522Y006536D01*
X028945Y006536D01*
X029157Y006324D01*
X029157Y005477D01*
X028945Y005265D01*
X028522Y005265D01*
X028310Y005477D01*
X028310Y006324D01*
X029691Y006324D02*
X029691Y006112D01*
X029903Y005901D01*
X030538Y005901D01*
X029903Y005901D02*
X029691Y005689D01*
X029691Y005477D01*
X029903Y005265D01*
X030538Y005265D01*
X030538Y006536D01*
X029903Y006536D01*
X029691Y006324D01*
D11*
X006654Y008311D02*
X006654Y000650D01*
X006656Y000606D01*
X006662Y000563D01*
X006671Y000521D01*
X006684Y000479D01*
X006701Y000439D01*
X006721Y000400D01*
X006744Y000363D01*
X006771Y000329D01*
X006800Y000296D01*
X006833Y000267D01*
X006867Y000240D01*
X006904Y000217D01*
X006943Y000197D01*
X006983Y000180D01*
X007025Y000167D01*
X007067Y000158D01*
X007110Y000152D01*
X007154Y000150D01*
X019402Y000150D01*
X019446Y000152D01*
X019489Y000158D01*
X019531Y000167D01*
X019573Y000180D01*
X019613Y000197D01*
X019652Y000217D01*
X019689Y000240D01*
X019723Y000267D01*
X019756Y000296D01*
X019785Y000329D01*
X019812Y000363D01*
X019835Y000400D01*
X019855Y000439D01*
X019872Y000479D01*
X019885Y000521D01*
X019894Y000563D01*
X019900Y000606D01*
X019902Y000650D01*
X019902Y008311D01*
X019900Y008355D01*
X019894Y008398D01*
X019885Y008440D01*
X019872Y008482D01*
X019855Y008522D01*
X019835Y008561D01*
X019812Y008598D01*
X019785Y008632D01*
X019756Y008665D01*
X019723Y008694D01*
X019689Y008721D01*
X019652Y008744D01*
X019613Y008764D01*
X019573Y008781D01*
X019531Y008794D01*
X019489Y008803D01*
X019446Y008809D01*
X019402Y008811D01*
X007154Y008811D01*
X007110Y008809D01*
X007067Y008803D01*
X007025Y008794D01*
X006983Y008781D01*
X006943Y008764D01*
X006904Y008744D01*
X006867Y008721D01*
X006833Y008694D01*
X006800Y008665D01*
X006771Y008632D01*
X006744Y008598D01*
X006721Y008561D01*
X006701Y008522D01*
X006684Y008482D01*
X006671Y008440D01*
X006662Y008398D01*
X006656Y008355D01*
X006654Y008311D01*
D12*
X015628Y007711D03*
X019078Y007711D03*
D13*
X009853Y008190D03*
X008853Y008190D03*
X019313Y002950D03*
X019313Y001950D03*
D14*
X018929Y002120D02*
X009553Y002120D01*
X009553Y002022D02*
X018893Y002022D01*
X018893Y002034D02*
X018893Y001866D01*
X018957Y001712D01*
X019075Y001594D01*
X019230Y001530D01*
X019397Y001530D01*
X019551Y001594D01*
X019669Y001712D01*
X019733Y001866D01*
X019733Y002034D01*
X019669Y002188D01*
X019551Y002306D01*
X019397Y002370D01*
X019230Y002370D01*
X019075Y002306D01*
X018957Y002188D01*
X018893Y002034D01*
X018893Y001923D02*
X009553Y001923D01*
X009553Y001825D02*
X018911Y001825D01*
X018951Y001726D02*
X009553Y001726D01*
X009553Y001718D02*
X009553Y002340D01*
X009601Y002360D01*
X009674Y002433D01*
X009713Y002528D01*
X009713Y002632D01*
X009674Y002727D01*
X009601Y002800D01*
X009505Y002840D01*
X009402Y002840D01*
X009306Y002800D01*
X009233Y002727D01*
X009193Y002632D01*
X009193Y002631D01*
X009113Y002551D01*
X009113Y001718D01*
X009113Y001717D01*
X009073Y001622D01*
X009073Y001518D01*
X009113Y001423D01*
X009186Y001350D01*
X009282Y001310D01*
X009385Y001310D01*
X009481Y001350D01*
X009554Y001423D01*
X009593Y001518D01*
X009593Y001622D01*
X009554Y001717D01*
X009553Y001718D01*
X009591Y001628D02*
X019042Y001628D01*
X019585Y001628D02*
X019742Y001628D01*
X019742Y001726D02*
X019675Y001726D01*
X019716Y001825D02*
X019742Y001825D01*
X019733Y001923D02*
X019742Y001923D01*
X019733Y002022D02*
X019742Y002022D01*
X019742Y002120D02*
X019697Y002120D01*
X019742Y002219D02*
X019639Y002219D01*
X019742Y002317D02*
X019525Y002317D01*
X019742Y002416D02*
X009657Y002416D01*
X009707Y002514D02*
X019742Y002514D01*
X019742Y002613D02*
X009713Y002613D01*
X009680Y002711D02*
X019742Y002711D01*
X019742Y002810D02*
X010144Y002810D01*
X010097Y002790D02*
X010196Y002831D01*
X010272Y002907D01*
X010313Y003006D01*
X010313Y003974D01*
X010272Y004073D01*
X009846Y004499D01*
X009783Y004525D01*
X009813Y004598D01*
X009813Y004702D01*
X009783Y004774D01*
X009783Y004865D01*
X010978Y006060D01*
X011051Y006090D01*
X011124Y006163D01*
X011163Y006258D01*
X011163Y006362D01*
X011124Y006457D01*
X011051Y006530D01*
X010955Y006570D01*
X010852Y006570D01*
X010756Y006530D01*
X010683Y006457D01*
X010653Y006385D01*
X009458Y005190D01*
X009323Y005055D01*
X009323Y004774D01*
X009293Y004702D01*
X009293Y004598D01*
X009333Y004503D01*
X009406Y004430D01*
X009458Y004408D01*
X009423Y004324D01*
X009423Y004216D01*
X009464Y004117D01*
X009773Y003808D01*
X009773Y003006D01*
X009814Y002907D01*
X009890Y002831D01*
X009990Y002790D01*
X010097Y002790D01*
X009943Y002810D02*
X009579Y002810D01*
X009328Y002810D02*
X006814Y002810D01*
X006814Y002908D02*
X009814Y002908D01*
X009773Y003007D02*
X008193Y003007D01*
X008201Y003010D02*
X008274Y003083D01*
X008313Y003178D01*
X008313Y003282D01*
X008274Y003377D01*
X008201Y003450D01*
X008105Y003490D01*
X008104Y003490D01*
X008093Y003501D01*
X008093Y004142D01*
X008094Y004143D01*
X008133Y004238D01*
X008133Y004342D01*
X008094Y004437D01*
X008021Y004510D01*
X007925Y004550D01*
X007822Y004550D01*
X007726Y004510D01*
X007653Y004437D01*
X007613Y004342D01*
X007613Y004238D01*
X007653Y004143D01*
X007653Y004142D01*
X007653Y003319D01*
X007793Y003179D01*
X007793Y003178D01*
X007833Y003083D01*
X007906Y003010D01*
X008002Y002970D01*
X008105Y002970D01*
X008201Y003010D01*
X008283Y003105D02*
X009773Y003105D01*
X009773Y003204D02*
X008313Y003204D01*
X008305Y003302D02*
X009773Y003302D01*
X009773Y003401D02*
X008250Y003401D01*
X008095Y003499D02*
X009773Y003499D01*
X009773Y003598D02*
X008093Y003598D01*
X008093Y003696D02*
X009773Y003696D01*
X009773Y003795D02*
X008093Y003795D01*
X008093Y003893D02*
X009688Y003893D01*
X009590Y003992D02*
X008093Y003992D01*
X008093Y004090D02*
X009491Y004090D01*
X009435Y004189D02*
X008113Y004189D01*
X008133Y004287D02*
X009423Y004287D01*
X009449Y004386D02*
X008115Y004386D01*
X008047Y004484D02*
X009352Y004484D01*
X009300Y004583D02*
X006814Y004583D01*
X006814Y004681D02*
X009293Y004681D01*
X009323Y004780D02*
X006814Y004780D01*
X006814Y004878D02*
X009323Y004878D01*
X009323Y004977D02*
X006814Y004977D01*
X006814Y005075D02*
X009343Y005075D01*
X009442Y005174D02*
X006814Y005174D01*
X006814Y005272D02*
X009540Y005272D01*
X009639Y005371D02*
X006814Y005371D01*
X006814Y005469D02*
X009737Y005469D01*
X009836Y005568D02*
X006814Y005568D01*
X006814Y005666D02*
X009934Y005666D01*
X010033Y005765D02*
X006814Y005765D01*
X006814Y005863D02*
X010131Y005863D01*
X010230Y005962D02*
X006814Y005962D01*
X006814Y006060D02*
X010328Y006060D01*
X010427Y006159D02*
X006814Y006159D01*
X006814Y006257D02*
X010525Y006257D01*
X010624Y006356D02*
X006814Y006356D01*
X006814Y006454D02*
X010682Y006454D01*
X010809Y006553D02*
X006814Y006553D01*
X006814Y006651D02*
X019742Y006651D01*
X019742Y006553D02*
X010997Y006553D01*
X011125Y006454D02*
X019742Y006454D01*
X019742Y006356D02*
X011163Y006356D01*
X011163Y006257D02*
X019742Y006257D01*
X019742Y006159D02*
X011120Y006159D01*
X010979Y006060D02*
X019742Y006060D01*
X019742Y005962D02*
X010880Y005962D01*
X010782Y005863D02*
X019742Y005863D01*
X019742Y005765D02*
X010683Y005765D01*
X010585Y005666D02*
X019742Y005666D01*
X019742Y005568D02*
X010486Y005568D01*
X010388Y005469D02*
X019742Y005469D01*
X019742Y005371D02*
X010289Y005371D01*
X010191Y005272D02*
X019742Y005272D01*
X019742Y005174D02*
X010092Y005174D01*
X009994Y005075D02*
X019742Y005075D01*
X019742Y004977D02*
X009895Y004977D01*
X009797Y004878D02*
X019742Y004878D01*
X019742Y004780D02*
X009783Y004780D01*
X009813Y004681D02*
X019742Y004681D01*
X019742Y004583D02*
X009807Y004583D01*
X009861Y004484D02*
X019742Y004484D01*
X019742Y004386D02*
X009960Y004386D01*
X010058Y004287D02*
X019742Y004287D01*
X019742Y004189D02*
X010157Y004189D01*
X010255Y004090D02*
X019742Y004090D01*
X019742Y003992D02*
X010306Y003992D01*
X010313Y003893D02*
X019742Y003893D01*
X019742Y003795D02*
X010313Y003795D01*
X010313Y003696D02*
X019742Y003696D01*
X019742Y003598D02*
X010313Y003598D01*
X010313Y003499D02*
X019742Y003499D01*
X019742Y003401D02*
X010313Y003401D01*
X010313Y003302D02*
X019742Y003302D01*
X019742Y003204D02*
X010313Y003204D01*
X010313Y003105D02*
X019742Y003105D01*
X019742Y003007D02*
X010313Y003007D01*
X010273Y002908D02*
X019742Y002908D01*
X019102Y002317D02*
X009553Y002317D01*
X009553Y002219D02*
X018988Y002219D01*
X019742Y001529D02*
X009593Y001529D01*
X009557Y001431D02*
X019742Y001431D01*
X019742Y001332D02*
X009438Y001332D01*
X009228Y001332D02*
X006814Y001332D01*
X006814Y001234D02*
X019742Y001234D01*
X019742Y001135D02*
X006814Y001135D01*
X006814Y001037D02*
X019742Y001037D01*
X019742Y000938D02*
X006814Y000938D01*
X006814Y000840D02*
X019742Y000840D01*
X019742Y000741D02*
X006814Y000741D01*
X006814Y000650D02*
X006814Y008311D01*
X006820Y008378D01*
X006871Y008500D01*
X006965Y008594D01*
X007087Y008645D01*
X007154Y008652D01*
X019402Y008652D01*
X019468Y008645D01*
X019591Y008594D01*
X019685Y008500D01*
X019735Y008378D01*
X019742Y008311D01*
X019742Y000650D01*
X019735Y000584D01*
X019685Y000461D01*
X019591Y000367D01*
X019468Y000316D01*
X019402Y000310D01*
X007154Y000310D01*
X007087Y000316D01*
X006965Y000367D01*
X006871Y000461D01*
X006820Y000584D01*
X006814Y000650D01*
X006814Y000643D02*
X019741Y000643D01*
X019719Y000544D02*
X006837Y000544D01*
X006886Y000446D02*
X019669Y000446D01*
X019542Y000347D02*
X007013Y000347D01*
X006814Y001431D02*
X009110Y001431D01*
X009073Y001529D02*
X006814Y001529D01*
X006814Y001628D02*
X009076Y001628D01*
X009113Y001726D02*
X006814Y001726D01*
X006814Y001825D02*
X009113Y001825D01*
X009113Y001923D02*
X006814Y001923D01*
X006814Y002022D02*
X009113Y002022D01*
X009113Y002120D02*
X006814Y002120D01*
X006814Y002219D02*
X009113Y002219D01*
X009113Y002317D02*
X006814Y002317D01*
X006814Y002416D02*
X009113Y002416D01*
X009113Y002514D02*
X006814Y002514D01*
X006814Y002613D02*
X009175Y002613D01*
X009226Y002711D02*
X006814Y002711D01*
X006814Y003007D02*
X007913Y003007D01*
X007824Y003105D02*
X006814Y003105D01*
X006814Y003204D02*
X007769Y003204D01*
X007670Y003302D02*
X006814Y003302D01*
X006814Y003401D02*
X007653Y003401D01*
X007653Y003499D02*
X006814Y003499D01*
X006814Y003598D02*
X007653Y003598D01*
X007653Y003696D02*
X006814Y003696D01*
X006814Y003795D02*
X007653Y003795D01*
X007653Y003893D02*
X006814Y003893D01*
X006814Y003992D02*
X007653Y003992D01*
X007653Y004090D02*
X006814Y004090D01*
X006814Y004189D02*
X007634Y004189D01*
X007613Y004287D02*
X006814Y004287D01*
X006814Y004386D02*
X007631Y004386D01*
X007700Y004484D02*
X006814Y004484D01*
X006814Y006750D02*
X019742Y006750D01*
X019742Y006848D02*
X006814Y006848D01*
X006814Y006947D02*
X019742Y006947D01*
X019742Y007045D02*
X006814Y007045D01*
X006814Y007144D02*
X019742Y007144D01*
X019742Y007242D02*
X006814Y007242D01*
X006814Y007341D02*
X019742Y007341D01*
X019742Y007439D02*
X006814Y007439D01*
X006814Y007538D02*
X019742Y007538D01*
X019742Y007636D02*
X006814Y007636D01*
X006814Y007735D02*
X019742Y007735D01*
X019742Y007833D02*
X010089Y007833D01*
X010091Y007834D02*
X010209Y007952D01*
X010273Y008106D01*
X010273Y008274D01*
X010209Y008428D01*
X010091Y008546D01*
X009937Y008610D01*
X009770Y008610D01*
X009615Y008546D01*
X009497Y008428D01*
X009433Y008274D01*
X009433Y008106D01*
X009497Y007952D01*
X009615Y007834D01*
X009770Y007770D01*
X009937Y007770D01*
X010091Y007834D01*
X010189Y007932D02*
X019742Y007932D01*
X019742Y008030D02*
X010242Y008030D01*
X010273Y008129D02*
X019742Y008129D01*
X019742Y008227D02*
X010273Y008227D01*
X010252Y008326D02*
X019741Y008326D01*
X019716Y008424D02*
X010211Y008424D01*
X010115Y008523D02*
X019663Y008523D01*
X019526Y008621D02*
X007029Y008621D01*
X006893Y008523D02*
X008592Y008523D01*
X008615Y008546D02*
X008497Y008428D01*
X008433Y008274D01*
X008433Y008106D01*
X008497Y007952D01*
X008615Y007834D01*
X008770Y007770D01*
X008937Y007770D01*
X009091Y007834D01*
X009209Y007952D01*
X009273Y008106D01*
X009273Y008274D01*
X009209Y008428D01*
X009091Y008546D01*
X008937Y008610D01*
X008770Y008610D01*
X008615Y008546D01*
X008496Y008424D02*
X006839Y008424D01*
X006815Y008326D02*
X008455Y008326D01*
X008433Y008227D02*
X006814Y008227D01*
X006814Y008129D02*
X008433Y008129D01*
X008465Y008030D02*
X006814Y008030D01*
X006814Y007932D02*
X008518Y007932D01*
X008618Y007833D02*
X006814Y007833D01*
X009089Y007833D02*
X009618Y007833D01*
X009518Y007932D02*
X009189Y007932D01*
X009242Y008030D02*
X009465Y008030D01*
X009433Y008129D02*
X009273Y008129D01*
X009273Y008227D02*
X009433Y008227D01*
X009455Y008326D02*
X009252Y008326D01*
X009211Y008424D02*
X009496Y008424D01*
X009592Y008523D02*
X009115Y008523D01*
D15*
X007174Y008107D03*
X007174Y007107D03*
X008174Y007107D03*
X008174Y006107D03*
X007174Y006107D03*
X009354Y005537D03*
X009144Y004787D03*
X009553Y004650D03*
X009693Y004270D03*
X007873Y004290D03*
X007794Y004927D03*
X010214Y006477D03*
X010903Y006310D03*
X011594Y006547D03*
X012043Y005984D03*
X012343Y005584D03*
X012743Y005184D03*
X011843Y005184D03*
X013594Y006417D03*
X013394Y006867D03*
X012294Y007407D03*
X011614Y008247D03*
X013744Y008257D03*
X014484Y008237D03*
X014928Y007704D03*
X014803Y006934D03*
X015623Y006600D03*
X016243Y006244D03*
X015803Y005934D03*
X014803Y005934D03*
X015333Y005164D03*
X014460Y004272D03*
X013993Y004028D03*
X012824Y003877D03*
X013264Y003457D03*
X012764Y002957D03*
X013264Y002457D03*
X011584Y003047D03*
X011824Y003877D03*
X010043Y003060D03*
X009453Y002580D03*
X008053Y003230D03*
X007174Y003107D03*
X007174Y002107D03*
X007624Y001237D03*
X008454Y000747D03*
X009204Y000747D03*
X009780Y001082D03*
X010380Y001082D03*
X010980Y001082D03*
X011580Y001082D03*
X012004Y001547D03*
X013264Y001457D03*
X012204Y000747D03*
X014804Y001067D03*
X015644Y001617D03*
X016550Y001445D03*
X016950Y000965D03*
X016454Y000747D03*
X017550Y000955D03*
X017970Y001445D03*
X018454Y000747D03*
X019454Y000747D03*
X015684Y002517D03*
X015264Y003457D03*
X016264Y003457D03*
X017264Y003457D03*
X016643Y004038D03*
X017138Y004218D03*
X016188Y004248D03*
X018003Y005180D03*
X019414Y005997D03*
X019077Y006584D03*
X018103Y006880D03*
X016643Y006720D03*
X016323Y007700D03*
X016603Y008460D03*
X018083Y008480D03*
X018393Y007706D03*
X019313Y004028D03*
X018843Y003923D03*
X009333Y001570D03*
X007024Y000537D03*
D16*
X009333Y001570D02*
X009333Y001810D01*
X009333Y002460D01*
X009453Y002580D01*
X008053Y003230D02*
X007873Y003410D01*
X007873Y004290D01*
X009693Y004290D02*
X009693Y004270D01*
D17*
X009553Y004650D02*
X009553Y004960D01*
X010903Y006310D01*
D18*
X009693Y004270D02*
X010043Y003920D01*
X010043Y003060D01*
M02*
